<?xml version="1.0" encoding="utf-8"?>
<!-- Generator: Adobe Illustrator 18.1.1, SVG Export Plug-In . SVG Version: 6.00 Build 0)  -->
<svg version="1.1" id="Слой_1" xmlns="http://www.w3.org/2000/svg" xmlns:xlink="http://www.w3.org/1999/xlink" x="0px" y="0px"
	 viewBox="0 0 2902.7 2902.7" enable-background="new 0 0 2902.7 2902.7" xml:space="preserve">
<g>
	<path d="M791.3,1098.3H2131c24.7,0,44.7-20,44.7-44.7s-20-44.7-44.7-44.7H791.3c-24.7,0-44.7,20-44.7,44.7
		S766.6,1098.3,791.3,1098.3z"/>
	<path d="M1595.1,2393.4H835.9c-24.7,0-44.7,20-44.7,44.7s20,44.7,44.7,44.7h759.2c24.7,0,44.7-20,44.7-44.7
		S1619.8,2393.4,1595.1,2393.4z"/>
	<path d="M791.3,1321.6H2131c24.7,0,44.7-20,44.7-44.7c0-24.7-20-44.7-44.7-44.7H791.3c-24.7,0-44.7,20-44.7,44.7
		C746.6,1301.6,766.6,1321.6,791.3,1321.6z"/>
	<path d="M791.3,1544.9h970.2c24.7,0,44.7-20,44.7-44.7c0-24.7-20-44.7-44.7-44.7H791.3c-24.7,0-44.7,20-44.7,44.7
		C746.6,1524.9,766.6,1544.9,791.3,1544.9z"/>
	<path d="M791.3,1768.2h831.6c24.7,0,44.7-20,44.7-44.7s-20-44.7-44.7-44.7H791.3c-24.7,0-44.7,20-44.7,44.7
		S766.6,1768.2,791.3,1768.2z"/>
	<path d="M1595.1,1902.1H925.2c-24.7,0-44.7,20-44.7,44.7c0,24.7,20,44.7,44.7,44.7h669.9c24.7,0,44.7-20,44.7-44.7
		C1639.8,1922.1,1619.8,1902.1,1595.1,1902.1z"/>
	<path d="M2800.8,1991.5c-0.4-226.8-143.4-428.9-357.3-504.6V741.1c0-1-0.5-1.8-0.5-2.7c-0.2-3.9-1-7.8-2.3-11.6
		c-0.4-1.4-0.9-2.8-1.5-4.1c-2.1-4.9-5.1-9.3-8.8-13.1L1850,128.9c-3.8-3.7-8.2-6.6-13.1-8.7c-1.4-0.6-2.8-1.1-4.2-1.5
		c-3.7-1.3-7.5-2-11.4-2.3c-1-0.1-1.9-0.6-2.9-0.6H612.6c-74,0.1-133.9,60-134,134v1250.4c0,24.7,20,44.7,44.7,44.7
		s44.7-20,44.7-44.7V249.8c0-24.7,20-44.6,44.7-44.7h1161.1v446.6c0.1,74,60,133.9,134,134h446.6v677.6c-2.4-0.4-4.9-0.4-7.3-0.8
		c-16.8-2.6-33.8-4.4-51-5.4c-6.2-0.4-12.4-0.8-18.6-0.9c-4.2-0.1-8.2-0.6-12.4-0.6c-12.5,0-24.8,1-37.1,1.9
		c-4.7,0.3-9.3,0.3-14,0.7c-20.7,2-41.2,5.2-61.4,9.5c-4.3,0.9-8.4,2.2-12.7,3.3c-16,3.9-31.8,8.3-47.2,13.6
		c-5.9,2-11.8,4.2-17.6,6.5c-13.9,5.3-27.6,11.2-40.9,17.6c-5.6,2.7-11.3,5.2-16.8,8.1c-16.7,8.7-32.9,18.2-48.5,28.6
		c-4.6,3-8.9,6.4-13.4,9.6c-12.7,9-25,18.4-36.8,28.4c-6.6,5.6-12.9,11.5-19.2,17.5c-8.7,8.1-17,16.5-25.1,25.1
		c-3.8,4.1-8.1,7.6-11.8,11.8c-2.5,2.8-4.5,5.9-6.9,8.8c-4.8,5.6-9.2,11.5-13.7,17.4c-6.4,8.3-12.9,16.5-18.8,25.1
		c-5.3,7.7-10,15.8-14.9,23.8c-4.3,7.1-8.9,14-12.9,21.2c-26.8,48.8-45.8,101.6-56.2,156.3c-0.3,1.5-0.4,3-0.7,4.5
		c-3,16.4-5.4,33-6.8,49.8c-0.5,5.2-0.5,10.4-0.8,15.5c-0.6,10.4-1.6,20.8-1.6,31.4c0,2.6,0.3,5.1,0.4,7.7
		c0.1,8.1,0.8,16.2,1.2,24.3c0.6,10,1.1,20.1,2.3,30c0.3,3.1,0.3,6.1,0.7,9.2c3.9,29.1,10.2,57.9,19,85.9c0.5,1.7,1.1,3.3,1.6,5
		c4.5,14.1,9.6,28,15.3,41.6c0.9,2.2,1.7,4.5,2.7,6.7c5.9,13.7,12.4,27,19.4,40.2c3.3,6.2,7,12.2,10.5,18.2
		c3.5,5.9,6.9,11.7,10.6,17.4c5.3,8.3,10.7,16.4,16.4,24.4c0.6,0.8,1.2,1.6,1.8,2.4c91.3,126.9,233.6,207.5,389.3,220.7
		c6.3,0.5,12.5,0.6,18.8,0.9c8.7,0.4,17.2,1.3,26,1.3c4.9,0,9.7-0.6,14.6-0.7c7.2-0.2,14.3-0.6,21.5-1.1c15-1,29.8-2.7,44.5-4.9
		c2.9-0.4,5.8-0.5,8.7-1v141.7c0,24.7-20,44.6-44.7,44.7h-1697c-24.7,0-44.6-20-44.7-44.7v-357.3c0-24.7-20-44.7-44.7-44.7
		s-44.7,20-44.7,44.7v357.3c0.1,74,60,133.9,134,134h1697c74-0.1,133.9-60,134-134v-165.2
		C2657.4,2420.3,2800.4,2218.3,2800.8,1991.5z M1907.7,696.4c-24.7,0-44.6-20-44.7-44.7V268.3l428.1,428.1H1907.7z M2385.8,2420.9
		c-19.8,5.5-39.9,9.7-60.2,12.5c-2.3,0.3-4.5,0.8-6.9,1c-19.8,2.5-39.8,3.6-59.7,3.3c-3.5,0-6.9-0.4-10.4-0.5
		c-18.4-0.6-36.7-2.4-54.9-5.4c-1.6-0.3-3.1-0.4-4.7-0.7c-21.3-3.8-42.3-9.1-62.8-15.9c-99-33.1-183.7-99.2-239.7-187.4
		c-1.3-2.1-2.6-4.2-3.9-6.4c-8.6-14.2-16.4-28.8-23.3-43.9c-1.5-3.2-3.2-6.3-4.6-9.6c-6.9-16-12.8-32.3-17.7-49
		c-1.9-6.3-3.4-12.8-5-19.3c-3-12.2-5.6-24.5-7.6-36.9c-1-6.5-2.2-12.9-3-19.5c-0.9-8-1.4-15.9-1.8-23.8c-0.5-7.6-1.1-15.2-1.2-22.9
		c-0.1-7.3,0.3-14.5,0.6-21.8c0.3-8.8,0.5-17.6,1.3-26.2c0.4-4.8,1.3-9.5,1.9-14.3c1.4-11,2.8-22,5-32.7l0.2-0.6
		c11.5-55.2,33.3-107.6,64.4-154.6c1.2-1.7,2.1-3.5,3.3-5.3c5.8-8.5,12.1-16.5,18.4-24.6c3.2-4.1,6.2-8.2,9.6-12.1
		c4.8-5.7,9.9-11,14.9-16.4c8.7-9.3,17.7-18.2,27-26.7c4.3-3.9,8.5-8,13-11.8c13.4-11.2,27.5-21.7,42.1-31.3
		c3.8-2.5,7.8-4.7,11.7-7.1c13-8,26.4-15.3,40.1-21.9c3.3-1.6,6.6-3.3,10-4.8c35.1-15.7,72.2-26.8,110.2-33.1c3.1-0.5,6.2-1,9.4-1.4
		c19.1-2.8,38.4-4.4,57.8-4.7h0c20.8-0.2,41.5,1.1,62.1,3.8c1.2,0.2,2.4,0.4,3.7,0.6c209.6,28.4,370.4,200.1,385,411.1
		C2725.1,2171.6,2589.5,2363.9,2385.8,2420.9L2385.8,2420.9z"/>
	<path d="M2577.5,1946.8h-267.9v-267.9c0-24.7-20-44.7-44.7-44.7c-24.7,0-44.7,20-44.7,44.7v267.9c0.1,49.3,40,89.3,89.3,89.3h267.9
		c24.7,0,44.7-20,44.7-44.7S2602.2,1946.8,2577.5,1946.8z"/>
	<path d="M771.8,2258.4l32.6,32.6c11.3,11.4,27.8,15.9,43.3,11.8c15.5-4.1,27.6-16.2,31.7-31.7c4.1-15.5-0.4-32-11.8-43.3
		l-31.8-31.8c-0.9-86.6-34-169.8-92.8-233.4L355,1542.3c-19.1-20.8-44.1-35.3-71.6-41.4c-46.7-10.5-95.4,3.6-129.3,37.4
		c-53.1,52.8-54.8,138.1-3.9,193l383.4,415.3C595.6,2213.3,680.9,2253.4,771.8,2258.4z M744.3,2165.8
		c-55.7-10.2-106.6-38.2-145.1-79.8l-287.3-311.3l70.8-70.8l294.7,319.2C713.9,2062.7,737.3,2112.5,744.3,2165.8z M215.9,1670.7
		c-18.3-19.7-17.7-50.3,1.4-69.3v0c9.3-9.4,22-14.7,35.3-14.6l1,0c13.6,0.2,26.5,6,35.7,16.1h0l32.7,35.4l-70.8,70.8L215.9,1670.7z"
		/>
</g>
</svg>
