<?xml version="1.0" encoding="utf-8"?>
<!-- Generator: Adobe Illustrator 18.1.1, SVG Export Plug-In . SVG Version: 6.00 Build 0)  -->
<svg version="1.1" id="Слой_1" xmlns="http://www.w3.org/2000/svg" xmlns:xlink="http://www.w3.org/1999/xlink" x="0px" y="0px"
	 viewBox="0 0 2902.7 2902.7" enable-background="new 0 0 2902.7 2902.7" xml:space="preserve">
<g id="visible">
	<path id="XMLID_266_" fill="#686868" d="M84.9,1476.6c0,0,1219.9,1520.2,2716.4,0C1304.9-19.8,84.9,1476.6,84.9,1476.6z
		 M1428.8,2000.8c-284.3,0-514.7-230.4-514.7-514.7c0-284.3,230.4-514.7,514.7-514.7c284.2,0,514.7,230.4,514.7,514.7
		C1943.5,1770.4,1713.1,2000.8,1428.8,2000.8z"/>
	<path id="XMLID_265_" fill="#686868" d="M1428.8,1286c-110.5,0-200.2,89.6-200.2,200.2c0,110.5,89.6,200.2,200.2,200.2
		c110.5,0,200.1-89.6,200.1-200.2C1628.9,1375.6,1539.3,1286,1428.8,1286z"/>
</g>
</svg>
