<?xml version="1.0" encoding="utf-8"?>
<!-- Generator: Adobe Illustrator 18.1.1, SVG Export Plug-In . SVG Version: 6.00 Build 0)  -->
<svg version="1.1" id="Слой_1" xmlns="http://www.w3.org/2000/svg" xmlns:xlink="http://www.w3.org/1999/xlink" x="0px" y="0px"
	 viewBox="0 0 2902.7 2902.7" enable-background="new 0 0 2902.7 2902.7" xml:space="preserve">
<g>
	<path d="M2344.4,2162.2c-72.6-72.6-191-72.8-263.7,0c-22.7,22.7-38.3,49.9-46.9,78.9l-431.9,0c-6.4-53-29.9-104.1-70.5-144.7
		c-40.5-40.5-91.6-64-144.6-70.6l0-8.5c-20.2,4.4-41.1,5.6-62.1,2.5v6.1c-53,6.7-104.1,29.9-144.7,70.5s-63.8,91.7-70.5,144.7
		l-556.6,0c-2.1-44.7-20.1-88.7-54.1-122.7c-72.8-72.8-191-72.8-263.7,0c-72.6,72.6-72.6,190.8,0.1,263.6
		c72.6,72.6,191,72.8,263.6,0.1c22.8-22.8,38.4-50,46.9-78.9l563.8-0.1c5.4,43.3,22,85.3,50.1,121.3l43.9,43.9
		c36.1,28.1,78,44.7,121.3,50.1v1.5c20.1-2.3,40.7-1.3,61.2,3.9c0.3,0,0.6-0.1,0.8-0.1v-5.3c53-6.6,104.2-29.9,144.7-70.5
		c40.6-40.6,63.8-91.7,70.5-144.7h424.6c2.2,44.6,20.1,88.7,54.1,122.7c72.8,72.8,191.1,72.6,263.7,0
		C2417.2,2353.2,2417.2,2234.9,2344.4,2162.2z M279.1,2338.1c-48.5-48.5-48.4-127.4,0-175.7c48.5-48.5,127.4-48.6,175.9-0.1
		c48.5,48.5,48.4,127.4-0.1,175.9C406.4,2386.4,327.5,2386.5,279.1,2338.1z M1223.8,2403.9c-72.6-72.6-72.7-191,0-263.7
		c72.7-72.7,191.1-72.6,263.7,0c72.8,72.8,72.7,191,0,263.7C1414.8,2476.6,1296.6,2476.7,1223.8,2403.9z M2124.7,2381.9
		c-48.5-48.5-48.5-127.2,0-175.7c48.5-48.5,127.3-48.5,175.7,0c48.5,48.5,48.5,127.2,0,175.7
		C2252,2430.4,2173.2,2430.4,2124.7,2381.9z"/>
	<path d="M696.6,2667.6"/>
	<path d="M2124.7,2381.9"/>
	<g>
		<path d="M2678,907.7L1390.9,310.2v-73.4c0-17.2-14-31.1-31.1-31.1c-17.2,0-31.1,13.9-31.1,31.1V2039c0,17.2,13.9,31.1,31.1,31.1
			c17.1,0,31.1-13.9,31.1-31.1v-569.3l1285.3-504.9c11.7-4.5,19.4-15.5,19.7-27.9C2696.3,924.4,2689.2,913,2678,907.7L2678,907.7z
			 M1390.9,1403.1V378.6l1195,554.9L1390.9,1403.1z M1390.9,1403.1"/>
	</g>
</g>
</svg>
