<?xml version="1.0" encoding="utf-8"?>
<!-- Generator: Adobe Illustrator 18.1.1, SVG Export Plug-In . SVG Version: 6.00 Build 0)  -->
<svg version="1.1" id="Слой_1" xmlns="http://www.w3.org/2000/svg" xmlns:xlink="http://www.w3.org/1999/xlink" x="0px" y="0px"
	 viewBox="0 0 2902.7 2902.7" enable-background="new 0 0 2902.7 2902.7" xml:space="preserve">
<g>
	<path d="M2673.9,1318.3h-155.3v-278.9c0-67.1-54.5-121.7-121.4-121.7h-145.6V810.5l-21.9-22v-0.2l-324.5-324.5l-346.9-346.7H472.2
		v489.4H238.1c-67.2,0-121.7,54.5-121.7,121.4v1943.5h0.2c-0.2,25.2,7.6,49.7,23.2,70.1c21.7,28.5,54.7,44.8,90.6,44.8h1991.2
		c51.5,0,96.7-34.8,109-80.6l454.9-1247.3v-8C2785.6,1373.9,2738.6,1318.3,2673.9,1318.3L2673.9,1318.3z M2397.2,1006.8
		c17.8,0,32.6,14.6,32.6,32.6v278.9h-178.2v-311.5H2397.2z M1584.3,268.9l515.5,515.5h-515.5V268.9z M561.3,206.2h934.3v667.3h667.3
		v444.9H682.7c-6.3,0-12.6,0.4-18.7,1.5c-43.5,7.2-79.5,38.6-90.1,79.1l-12.6,34.3V206.2z M205.5,727.9c0-17.8,14.5-32.6,32.6-32.6
		h234.1v980.3l-266.7,728.1V727.9z M2246,2678.7c-3.1,10.9-13.1,18.5-24.4,18.5H230.5c-10.7,0-17.2-6.1-19.8-9.7
		c-2.8-3.7-7.2-11.3-5.6-18.2l267.1-732.7v0.2l185.1-507.4l1.3-3.5c2.8-11.1,12.8-18.7,24.1-18.7h1991.2c17,0,21.3,24.4,22.4,36.5
		L2246,2678.7z M2246,2678.7"/>
	<path d="M828.3,873.5h444.9c24.5,0,44.5-20,44.5-44.5c0-24.6-20-44.5-44.5-44.5H828.3c-24.6,0-44.5,20-44.5,44.5
		C783.7,853.5,803.7,873.5,828.3,873.5L828.3,873.5z M828.3,873.5"/>
	<path d="M828.3,562h444.9c24.5,0,44.5-20,44.5-44.5c0-24.5-20-44.5-44.5-44.5H828.3c-24.6,0-44.5,20-44.5,44.5
		C783.7,542,803.7,562,828.3,562L828.3,562z M828.3,562"/>
	<path d="M828.3,1184.7h1067.6c24.5,0,44.5-19.7,44.5-44.5c0-24.5-20-44.3-44.5-44.3H828.3c-24.6,0-44.5,19.7-44.5,44.3
		C783.7,1165,803.7,1184.7,828.3,1184.7L828.3,1184.7z M828.3,1184.7"/>
</g>
</svg>
