<?xml version="1.0" encoding="utf-8"?>
<!-- Generator: Adobe Illustrator 18.1.1, SVG Export Plug-In . SVG Version: 6.00 Build 0)  -->
<svg version="1.1" id="Слой_1" xmlns="http://www.w3.org/2000/svg" xmlns:xlink="http://www.w3.org/1999/xlink" x="0px" y="0px"
	 viewBox="0 0 2902.7 2902.7" enable-background="new 0 0 2902.7 2902.7" xml:space="preserve">
<g>
	<path d="M2686.8,163h-2472c-29,0-52.4,23.5-52.4,52.4v2472c0,28.9,23.5,52.4,52.4,52.4H2316c29,0,52.4-23.5,52.4-52.4
		c0-29-23.5-52.4-52.4-52.4H267.3V267.9h2367.1v2419.5c0,28.9,23.5,52.4,52.5,52.4c28.9,0,52.4-23.5,52.4-52.4v-2472
		C2739.2,186.5,2715.7,163,2686.8,163L2686.8,163z M2686.8,163"/>
	<path d="M737.6,708.6c-110.9,0-201,90.2-201,201c0,110.9,90.1,201,201,201c110.8,0,201-90.2,201-201
		C938.6,798.8,848.4,708.6,737.6,708.6L737.6,708.6z M737.6,1005.7c-53,0-96.1-43.1-96.1-96.1c0-53,43.1-96.1,96.1-96.1
		c53,0,96.1,43.1,96.1,96.1C833.7,962.6,790.6,1005.7,737.6,1005.7L737.6,1005.7z M737.6,1005.7"/>
	<path d="M2319.5,857.2H1095.9c-29,0-52.5,23.5-52.5,52.4c0,29,23.5,52.4,52.5,52.4h1223.6c28.9,0,52.4-23.5,52.4-52.4
		C2371.9,880.7,2348.4,857.2,2319.5,857.2L2319.5,857.2z M2319.5,857.2"/>
	<path d="M737.6,1250.4c-29,0-52.4,23.5-52.4,52.4c0,29,23.5,52.4,52.4,52.4c53,0,96.1,43.1,96.1,96.1c0,53-43.1,96.1-96.1,96.1
		c-53,0-96.1-43.2-96.1-96.1c0-29-23.5-52.5-52.4-52.5c-28.9,0-52.4,23.5-52.4,52.5c0,110.8,90.1,201,201,201
		c110.8,0,201-90.2,201-201C938.6,1340.6,848.4,1250.4,737.6,1250.4L737.6,1250.4z M737.6,1250.4"/>
	<path d="M2319.5,1399H1095.9c-29,0-52.5,23.5-52.5,52.5c0,28.9,23.5,52.4,52.5,52.4h1223.6c28.9,0,52.4-23.5,52.4-52.4
		C2371.9,1422.5,2348.4,1399,2319.5,1399L2319.5,1399z M2319.5,1399"/>
	<path d="M737.6,1792.3c-110.9,0-201,90.2-201,201c0,110.9,90.1,201,201,201c110.8,0,201-90.2,201-201
		C938.6,1882.5,848.4,1792.3,737.6,1792.3L737.6,1792.3z M737.6,2089.5c-53,0-96.1-43.1-96.1-96.1c0-53,43.1-96.1,96.1-96.1
		c53,0,96.1,43.1,96.1,96.1C833.7,2046.4,790.6,2089.5,737.6,2089.5L737.6,2089.5z M737.6,2089.5"/>
	<path d="M2319.5,1940.9H1095.9c-29,0-52.5,23.5-52.5,52.4c0,29,23.5,52.4,52.5,52.4h1223.6c28.9,0,52.4-23.5,52.4-52.4
		C2371.9,1964.4,2348.4,1940.9,2319.5,1940.9L2319.5,1940.9z M2319.5,1940.9"/>
</g>
</svg>
