<?xml version="1.0" encoding="utf-8"?>
<!-- Generator: Adobe Illustrator 18.1.1, SVG Export Plug-In . SVG Version: 6.00 Build 0)  -->
<svg version="1.1" id="Слой_1" xmlns="http://www.w3.org/2000/svg" xmlns:xlink="http://www.w3.org/1999/xlink" x="0px" y="0px"
	 viewBox="0 0 2902.7 2902.7" enable-background="new 0 0 2902.7 2902.7" xml:space="preserve">
<g>
	<path d="M816.3,556.9c18.8,54.1,69.1,90.4,125.4,90.4h341.5c56.3,0,106.8-36.3,125.4-90.4c18-51.8,73.8-167.4,117.3-204.1
		c38.1-32.3,56.1-82.4,46.6-130.6c-9.2-47.6-42.4-85-88.6-100.3c-138-45.8-260.3-30.3-353.9,44.4c-16.6,13.5-39.2,13.5-55.8,0
		c-93.6-74.7-215.9-90.2-353.8-44.4c-46.2,15.3-79.4,52.7-88.6,100.3c-9.4,48.2,8.5,98.3,46.6,130.6
		C727.7,394.3,803,518.3,816.3,556.9L816.3,556.9z M722,239.7c1.8-8.6,7.4-24,27.3-30.5c42.7-14.2,82.6-21.4,119.4-21.4
		c56.7,0,106.3,16.8,148.1,50.3c50.3,40.4,120.4,40.2,170.7,0c69.1-55.2,158.9-64.8,267.5-28.9c19.9,6.5,25.6,21.9,27.3,30.5
		c2.9,15.9-2.9,31.8-15.9,42.9c-70.2,59.4-132.9,210.5-144.7,244.6c-5.8,17.1-21.3,28.5-38.6,28.5H941.9
		c-17.3,0-32.7-11.4-38.6-28.5C884,471.5,798.8,334.4,738,282.5C725,271.5,718.9,255.6,722,239.7L722,239.7z M722,239.7"/>
	<path d="M1503.1,739.4c0-25.3-20.7-46-46-46c-8.6,0-16,3.2-22.9,7.2c-6.7-4.3-14.4-7.2-22.9-7.2H859.8c-25.3,0-45.9,20.7-45.9,46
		s20.6,46,45.9,46h551.5v46H905.8c-25.3,0-46,20.4-46,45.7c0,25.6,20.7,46,46,46h547.9c41.3,34.3,92,53.9,146.1,53.9
		c61.5,0,119.1-23.8,162.4-67.3c18-18,18-46.9,0-64.8c-17.9-18-46.9-18-64.8,0c-52,51.8-142,52-194.3,0.7V739.4z M1503.1,739.4"/>
	<g>
		<defs>
			<rect id="SVGID_1_" x="75.6" y="38.7" width="2757" height="2814.5"/>
		</defs>
		<clipPath id="SVGID_2_">
			<use xlink:href="#SVGID_1_"  overflow="visible"/>
		</clipPath>
		<path clip-path="url(#SVGID_2_)" d="M1043.6,1290.9c-294.6,0-643.3,373.5-643.3,689.3c0,25.3,20.7,45.7,46,45.7
			c25.4,0,46-20.4,46-45.7c0-262.5,309.2-597.5,551.3-597.5c25.3,0,46-20.4,46-46C1089.5,1311.3,1068.9,1290.9,1043.6,1290.9
			L1043.6,1290.9z M1043.6,1290.9"/>
		<path clip-path="url(#SVGID_2_)" d="M2330.3,1566.4c-47.6,0-103.9,2.9-160.9,9.4c-61.7-113.3-143.4-210.9-246.4-289.6l-331-225
			c-54.7-42-141.1-92-241.2-92H993.7c-88.4,0-175.4,30-243.7,83.7L425,1289.7C86,1556.3-21.3,2023.4,169.9,2400.4
			c69.6,137.1,185.8,302.9,344.6,313.7c12.3,0.9,25.1,1.3,37.7,1.3h894.1c67.5,83.9,170.8,137.8,286.6,137.8
			c133.3,0,249.7-71.3,314.3-177.7c82.1,25.3,182.7,39.9,283.2,39.9c221,0,459.5-70.2,459.5-184v-252.6h-3.8
			c2.2-7.4,3.8-15,3.8-22.9v-528.6C2789.8,1600.2,2500.8,1566.4,2330.3,1566.4L2330.3,1566.4z M2694.2,1726.8
			c-0.9,1.1-1.6,2.1-2.9,3.2c-1.8,1.4-4,2.9-6.5,4.5c-2.9,1.8-6.7,3.8-10.6,5.9c-3.3,1.8-6.7,3.3-10.7,5.2
			c-4.7,2.2-10.3,4.3-16.2,6.5c-4.7,1.8-9.4,3.6-14.8,5.4c-6.8,2-14.6,4.3-22.2,6.5c-6.1,1.6-12.1,3.4-18.8,5.2
			c-8.8,2-18.4,4-28.3,6c-7.4,1.6-14.4,3.2-22.5,4.5c-11,2.1-23.3,3.6-35.4,5.2c-8.3,1.1-16.1,2.5-25.2,3.6
			c-14.4,1.6-30.3,2.7-46.2,3.8c-8.1,0.7-15.5,1.6-23.8,2c-25.2,1.4-51.9,2.2-80.1,2.2c-28.3,0-55-0.9-80.1-2.2
			c-8.3-0.5-15.7-1.3-23.8-2c-15.9-1.1-31.8-2.2-46.2-3.8c-9-1.1-16.8-2.5-25.2-3.6c-12.1-1.6-24.5-3.1-35.4-5.2
			c-8.1-1.3-15-2.9-22.5-4.5c-9.8-2-19.5-4-28.3-6c-6.7-1.8-12.8-3.4-18.8-5.2c-7.6-2.2-15.5-4.5-22.2-6.5
			c-5.3-1.8-10.1-3.6-14.8-5.4c-5.9-2.2-11.5-4.3-16.2-6.5c-4-1.8-7.4-3.4-10.7-5.2c-3.8-2-7.6-4.1-10.6-5.9
			c-2.5-1.5-4.7-3.1-6.5-4.5c-1.1-1.1-1.8-1.8-2.7-2.9c0.5-0.5,0.9-0.9,1.6-1.3c1.6-1.4,4.1-2.9,6.5-4.5c3.6-2.5,8.3-5.2,13.7-7.9
			c3.2-1.5,6-2.9,9.4-4.5c3.6-1.6,7.9-3.2,12.1-4.9c4.9-1.8,10.3-3.8,16.1-5.9c4.1-1.3,8.1-2.6,12.6-4c10.3-3.2,21.5-6.3,33.9-9.2
			c5.8-1.4,12.4-2.7,18.6-4c7.4-1.6,15.3-3.2,23.3-4.5c9-1.5,18.4-3.1,28.3-4.7c51.9-7.8,113.8-13.2,187.8-13.2
			C2547,1658.4,2668.7,1703.2,2694.2,1726.8L2694.2,1726.8z M1993.6,2104.8c4.3,1.8,8.5,3.4,12.8,5.2c8.1,3.2,16.2,6.1,24.7,9
			c4.5,1.6,8.7,2.9,13.4,4.5c9.7,2.9,19.5,5.8,29.9,8.5c3.6,0.9,7,2,10.5,2.9c14,3.3,28.3,6.7,42.9,9.4c2.9,0.7,6.3,1.1,9.2,1.8
			c11.7,2,23.5,4,35.7,5.9c5.2,0.9,10.3,1.6,15.5,2.2c10.3,1.3,20.9,2.7,31.2,3.6c5.6,0.7,11.3,1.1,16.6,1.8
			c10.8,0.9,21.8,1.6,32.8,2.2c4.7,0.2,9.6,0.6,14.6,0.9c15.7,0.7,31.4,1.1,46.9,1.1c15.7,0,31.4-0.5,47.1-1.1
			c4.9-0.2,9.9-0.6,14.8-0.9c10.8-0.7,21.8-1.4,32.3-2.2c5.8-0.5,11.4-1.1,17.1-1.8c10.3-0.9,20.6-2.2,30.7-3.6
			c5.3-0.7,10.7-1.4,15.9-2.2c11.9-1.6,23.5-3.6,35-5.9c3.4-0.7,6.8-1.1,9.9-1.8c14.6-2.9,28.7-6.1,42.6-9.4c3.8-0.9,7.4-2,11.3-3.2
			c10.1-2.7,19.7-5.4,29.4-8.3c4.5-1.6,9-3.2,13.5-4.5c8.5-2.9,16.6-5.9,24.7-9c4.3-1.8,8.5-3.3,12.5-5.2c8.3-3.3,16.2-7.2,23.8-11
			c2.5-1.1,5.2-2,7.4-3.4l0.2,162c-10.7,26-129.5,84.3-316.8,93.8c-16.8,0.4-33.3,1.3-51.4,1.3c-101.2,0-201-15.5-277.5-42.9
			c-0.2-0.5-0.5-0.9-0.9-1.4c-5.3-9.4-11-18.6-17.2-27.6c-0.9-1.3-2.1-2.7-2.9-3.8c-5.9-8.1-11.7-16-18.2-23.6
			c-1.8-2.2-3.8-4.3-5.8-6.5c-5.6-6.5-11.4-12.8-17.5-18.6c-3.2-3.2-6.5-5.9-9.7-9c-5.4-4.7-10.5-9.6-16.1-14.1
			c-0.5-0.5-1.1-1.1-1.6-1.4c0-18.2,0-58.1,0-108.2c2.5,1.1,5.1,2.2,7.6,3.4C1977.8,2097.9,1985.5,2101.5,1993.6,2104.8
			L1993.6,2104.8z M1386.6,2623.4H552.2c-10.6,0-21.1-0.5-31.6-1.1c-90.2-6-185.8-99.6-268.8-263.4
			c-171.4-338.1-74.7-757.2,228.7-995.8l325.1-236.9c53.4-41.9,120.3-65,188-65h357.4c74.3,0,141.8,39.7,187.4,74.4l331,224.8
			c82.1,63.1,150.8,140.3,204.1,230c-58.1,11.9-114.4,30.3-153,57l-3.2,2.2c-5.8,4.3-11.2,8.7-16.1,13.4c-2,1.8-3.8,3.8-5.6,6
			c-3.8,3.8-7.2,7.9-10.1,12.3c-2.2,3.4-4,7.2-5.9,11c-1.8,3.3-3.6,6.7-4.7,10.3c-2.7,7.9-4.2,16-4.2,24.5V2145
			c-15.5-6.3-31.4-11.5-47.8-15.5c-2.2-0.7-4.5-1.1-6.5-1.8c-16.2-3.8-32.6-6.5-49.4-8.1c-1.8-0.2-3.8-0.2-5.6-0.2
			c-9.4-0.9-18.8-1.6-28.5-1.6c-5.2,0-9.9,0.7-15,0.9c-3.8,0-7.6,0.2-11.7,0.4c-16.4,1.4-32.6,3.2-48.2,6.3
			c-0.2,0.2-0.5,0.2-0.9,0.2c-1.1,0.2-2.5,0.9-3.6,1.1c-14.4,3.2-28.5,7.4-42.2,12.1c-4.9,1.8-9.9,3.6-14.8,5.4
			c-13.5,5.6-26.9,11.7-39.7,18.6c-4.7,2.7-9.4,5.6-13.9,8.6c-9,5.3-17.7,11.2-26.2,17.5c-4.9,3.6-9.9,7.2-14.8,11
			c-10.7,8.7-21.1,17.9-30.7,28c-4.3,4.3-8.1,8.7-12.1,13.4c-7,7.6-13.4,15.7-19.8,24c-3.3,4.5-6.9,8.8-10.1,13.3
			c-8,11.9-15.2,24.2-21.9,37c-2.5,4.9-4.9,10.1-7.2,15.3c-5.4,11.2-10.1,22.6-14.1,34.5c-1.1,3.4-2.7,6.8-3.6,10.1
			c-4.9,15-8.3,30.7-11,46.5c-0.5,2-1.1,4-1.6,6c-0.2,2.5-0.2,5.2-0.6,7.6c-1.4,10.8-2.2,21.8-2.7,32.7c-0.2,4.1-0.7,7.9-0.7,11.9
			c0,1.8-0.2,3.4-0.2,5.2c0,7.2,0.7,14.4,1.1,21.5C1368.2,2546.9,1374.5,2586.8,1386.6,2623.4L1386.6,2623.4z M1732.8,2761.1
			c-151,0-273.8-121.8-275.5-272.4c0-3.6,0.2-7.2,0.2-10.7c0.2-4.9,0.4-10.1,0.9-15.1c0.2-4.3,0.7-8.3,1.4-12.6
			c0.4-4.3,1.1-8.5,1.8-12.8c2.2-11.9,4.7-23.5,8.5-35c0.2-1.3,0.9-2.5,1.1-3.6c4-11.7,8.5-22.9,13.9-33.9c0.7-0.9,1.1-2,1.5-2.9
			c24.7-48.7,64-89.8,111.3-116.9c0.2,0,0.2-0.2,0.5-0.2c10.7-6.3,22-11.2,33.7-16c2.9-1.1,6-2.2,9-3.3c10.1-3.6,20.6-6.7,31.2-9
			c1.6-0.5,2.9-0.9,4.5-1.1c13.2-2.7,26.5-4.3,39.7-4.9c2.7-0.2,5.2-0.5,7.6-0.5c13.7-0.4,27.2,0,40.4,1.6c0.9,0,1.6,0.2,2.2,0.2
			c14.2,1.8,28.1,4.7,41.8,8.5c0.2,0,0.5,0.2,0.7,0.2c14.1,4,27.8,9.4,41.5,15.7c12.4,5.9,24.5,12.6,35.7,20l1.8,1.3
			c1.6,1.1,3.1,2.5,4.7,3.4c7.6,5.6,14.8,11.4,22,17.5c1.6,1.5,3.3,3.1,4.9,4.7c7,6.5,13.7,13.2,20,20.4c0.7,0.7,1.4,1.4,2,2
			c14.6,17.1,27.2,35.9,37.3,56.1c2.5,4.5,4.7,9.2,6.7,13.9c3.6,8.1,6.7,16.1,9.4,24.5c0,0.5,0.5,1.1,0.5,1.8
			c2.7,8.3,4.9,16.6,6.7,25.2c0.2,0.6,0.5,1.3,0.5,2c1.8,8.5,3.1,17.1,4,25.6c0.2,0.9,0.2,1.6,0.5,2.2c0.9,9.4,1.3,18.8,1.3,28.3
			c0,9.9-0.4,19.5-1.6,29.2c0,1.4-0.5,2.7-0.5,4.3c-1.1,8.3-2.2,16.7-4,24.7c-0.2,0.9-0.7,1.8-0.7,2.7c-2,8.7-4.5,17.3-7.2,26
			l-0.5,0.9c-3.1,9-6.5,17.7-10.5,26.5C1940.1,2694.7,1844.1,2761.1,1732.8,2761.1L1732.8,2761.1z M2330.3,2623.4
			c-87.3,0-174.1-11.7-245.5-32.6v-0.2c4.5-14.8,7.9-30.3,10.3-45.7c0.7-3.8,1.4-7.4,1.8-11.3c2.1-15.9,3.6-31.8,3.6-48.2
			c0-11.9-0.7-23.5-1.8-35.2c-0.5-4.3-1.1-8.5-1.8-12.6c-0.6-6-1.3-11.9-2.5-17.7c69.8,12.8,150.8,19.8,235.8,19.8
			c109.7,0,268.6-14.2,367.7-57.9l0.2,146.5C2686.6,2556.5,2547,2623.4,2330.3,2623.4L2330.3,2623.4z M2330.3,2071.9
			c-216.3,0-355.4-66.2-367.5-91.6c0-52.5,0.2-105.6,0.2-149.9c1.1,0.5,2.5,0.9,3.6,1.4c11,4.7,22.4,9.2,34.7,13.2
			c0.7,0.2,1.4,0.5,2,0.7c12.4,4,25.6,7.6,39.1,11c4.5,1.1,9,2,13.5,3.2c9.8,2.2,19.7,4.5,29.8,6.3c4.9,0.9,9.9,2,14.8,2.7
			c11.2,2,22.5,3.8,33.9,5.4c3.6,0.7,6.9,1.1,10.5,1.8c14.8,1.8,29.9,3.6,44.5,5.2c3.8,0.2,7.4,0.5,11.2,0.9
			c11.2,0.9,22.5,1.8,33.7,2.6c4.7,0.2,9.4,0.5,14.1,0.9c10.3,0.5,20.4,0.9,30.3,1.3c4.3,0.2,8.3,0.2,12.6,0.5
			c13.5,0.5,26.5,0.7,38.8,0.7c12.6,0,25.6-0.2,39.1-0.7c4.3-0.2,8.5-0.2,12.5-0.5c9.9-0.4,20-0.9,30.1-1.3
			c4.9-0.5,9.6-0.7,14.6-0.9c11-0.9,22.2-1.8,33.7-2.6c3.6-0.5,7.2-0.7,11-1.1c14.8-1.3,29.6-3.2,44.5-5.2c3.6-0.5,7.2-1.1,10.7-1.5
			c11.4-1.6,22.7-3.4,33.7-5.4c5.2-0.9,9.9-1.8,14.8-2.7c10.1-2,20.2-4,30-6.5c4.5-0.9,9-2,13.5-3.2c13.7-3.3,27.1-7,39.7-11.2
			c0.7-0.2,1.3-0.5,2-0.7c11.9-3.8,23.3-8.3,34.1-12.8c1.3-0.7,2.7-1.1,4-1.6l0.2,146.5C2686.6,2005.2,2547,2071.9,2330.3,2071.9
			L2330.3,2071.9z M2330.3,2071.9"/>
	</g>
</g>
</svg>
